<?xml version="1.0" encoding="UTF-8" standalone="no"?>
<!-- Created with Inkscape (http://www.inkscape.org/) -->

<svg
   width="33.826103mm"
   height="33.780392mm"
   viewBox="0 0 33.826103 33.780392"
   version="1.1"
   id="svg1710"
   sodipodi:docname="Logo.svg"
   inkscape:version="1.2.2 (732a01da63, 2022-12-09)"
   inkscape:export-filename="Logo.png"
   inkscape:export-xdpi="96"
   inkscape:export-ydpi="96"
   xmlns:inkscape="http://www.inkscape.org/namespaces/inkscape"
   xmlns:sodipodi="http://sodipodi.sourceforge.net/DTD/sodipodi-0.dtd"
   xmlns:xlink="http://www.w3.org/1999/xlink"
   xmlns="http://www.w3.org/2000/svg"
   xmlns:svg="http://www.w3.org/2000/svg">
  <sodipodi:namedview
     id="namedview23"
     pagecolor="#ffffff"
     bordercolor="#000000"
     borderopacity="0.25"
     inkscape:showpageshadow="2"
     inkscape:pageopacity="0.0"
     inkscape:pagecheckerboard="0"
     inkscape:deskcolor="#d1d1d1"
     inkscape:document-units="mm"
     showgrid="true"
     inkscape:zoom="3.1486461"
     inkscape:cx="118.94001"
     inkscape:cy="41.446385"
     inkscape:window-width="1920"
     inkscape:window-height="991"
     inkscape:window-x="-9"
     inkscape:window-y="-9"
     inkscape:window-maximized="1"
     inkscape:current-layer="svg1710">
    <inkscape:grid
       type="xygrid"
       id="grid2486" />
  </sodipodi:namedview>
  <defs
     id="defs1707">
    <linearGradient
       xlink:href="#linearGradient1668"
       id="linearGradient1670"
       x1="325.46216"
       y1="404.07864"
       x2="347.02609"
       y2="404.07864"
       gradientUnits="userSpaceOnUse" />
    <linearGradient
       id="linearGradient1668">
      <stop
         style="stop-color:#000000;stop-opacity:1;"
         offset="0"
         id="stop1664" />
      <stop
         style="stop-color:#000000;stop-opacity:0;"
         offset="1"
         id="stop1666" />
    </linearGradient>
    <linearGradient
       xlink:href="#linearGradient1668"
       id="linearGradient1901"
       gradientUnits="userSpaceOnUse"
       x1="325.46216"
       y1="404.07864"
       x2="347.02609"
       y2="404.07864" />
  </defs>
  <path
     style="display:inline;fill:none;stroke:#3b3b3b;stroke-width:0.3;stroke-linecap:round;stroke-dasharray:none;stroke-opacity:1"
     d="m 17.084388,0.47565932 9.562565,31.43484568 -5.110449,0.0225 -2.184696,-7.584595 H 7.9499953 L 5.7968113,31.960602 0.67554175,31.935167 10.194032,0.4382134 Z"
     id="path305"
     sodipodi:nodetypes="ccccccccc" />
  <path
     style="fill:none;stroke:#3b3b3b;stroke-width:0.3;stroke-linecap:round;stroke-dasharray:none;stroke-opacity:1"
     d="m 9.2152836,19.878168 8.8759554,0.0063 -4.250984,-15.4542443 -0.343332,0.00255 z"
     id="path6220"
     sodipodi:nodetypes="ccccc" />
  <g
     id="layer1"
     transform="matrix(4.8283581,0,0,4.8283581,-425.25321,-419.0977)">
    <g
       aria-label="A"
       transform="matrix(0.26225047,0,0,0.2496337,2.721478,-10.716681)"
       id="text111"
       style="font-size:37.3333px;white-space:pre;shape-inside:url(#rect113);stroke:url(#linearGradient1670);stroke-opacity:1">
      <path
         d="m 326.12695,417.02134 7.47395,-25.88539 h 5.28646 l 7.47395,25.88539 h -3.82812 l -6.125,-22.74998 h -0.32812 l -6.125,22.74998 z m 3.46354,-6.30729 v -3.46353 h 13.12499 v 3.46353 z"
         style="font-family:'Cascadia Code';-inkscape-font-specification:'Cascadia Code';stroke:none;stroke-opacity:1"
         id="path277" />
    </g>
    <g
       id="layer1-8"
       transform="matrix(0.04982971,0,0,0.04743243,90.384101,88.939546)"
       style="stroke:#000000;stroke-opacity:1">
      <g
         id="g2387"
         style="fill:#ffd42a;stroke:#000000;stroke-opacity:1"
         transform="matrix(0.45541,0,0,0.45541,26.271,23.868)">
        <path
           id="path2389"
           d="m 12.473,121.08 c -0.914,1.76 -1.991,3.41 -1.991,5.34 l 0.009,0.81 c 0,4.17 3.266,6.69 7.02,6.69 h 121.32 c 3.76,0 6.99,-3.12 6.99,-7.29 l -0.04,-0.81 c 0,-1.94 -0.95,-3.62 -1.99,-5.35 L 83.707,12.69 C 81.052,9.7442 76.748,9.7442 74.093,12.694 l -61.619,108.39 z"
           style="fill:#ffd42a;stroke:#000000;stroke-width:6.8314;stroke-opacity:1" />
      </g>
      <path
         id="path2393"
         transform="matrix(0.54212,0,0,0.54212,49.546,33.731)"
         d="m 31.962924,74.47538 a 8.0416269,8.0416269 0 0 1 -8.041627,8.041627 8.0416269,8.0416269 0 0 1 -8.041627,-8.041627 8.0416269,8.0416269 0 0 1 8.041627,-8.041627 8.0416269,8.0416269 0 0 1 8.041627,8.041627 z"
         style="stroke:#000000;stroke-opacity:1" />
      <path
         id="path2395"
         style="fill:#000000;stroke:#000000;stroke-opacity:1"
         d="m 62.486,43.817 c 1.713,0 4.371,1.365 4.371,3.06 l -1.279,17.615 c 0,1.695 -1.379,3.06 -3.092,3.06 -1.713,0 -3.091,-1.365 -3.091,-3.06 L 57.902,46.877 c 0,-1.695 2.871,-3.06 4.584,-3.06 z" />
    </g>
    <path
       style="fill:#000000;stroke-width:0.255864"
       d="m 88.2327,93.549013 0.307448,0.246451"
       id="path365" />
    <path
       style="fill:none;stroke:#32cd32;stroke-width:0.0967046;stroke-linecap:round;stroke-dasharray:none;stroke-opacity:1"
       d="m 89.303544,93.544097 c 0,0 -0.12341,-0.247442 -0.525901,-0.249291 -0.417644,0.0019 -0.521592,0.250942 -0.521592,0.250942"
       id="path3339" />
    <path
       style="fill:none;stroke:#32cd32;stroke-width:0.0967046;stroke-linecap:round;stroke-dasharray:none;stroke-opacity:1"
       d="m 90.352808,93.543351 c 0,0 -0.12341,-0.247441 -0.525901,-0.24929 -0.417644,0.0019 -0.521592,0.250942 -0.521592,0.250942"
       id="path3339-2" />
    <path
       style="fill:none;stroke:#32cd32;stroke-width:0.0967046;stroke-linecap:round;stroke-dasharray:none;stroke-opacity:1"
       d="m 91.40181,93.543351 c 0,0 -0.123409,-0.247441 -0.5259,-0.24929 -0.417644,0.0019 -0.521592,0.250942 -0.521592,0.250942"
       id="path3339-7" />
    <path
       style="fill:none;stroke:#32cd32;stroke-width:0.0967046;stroke-linecap:round;stroke-dasharray:none;stroke-opacity:1"
       d="m 92.451836,93.54237 c 0,0 -0.12341,-0.247441 -0.525901,-0.249291 -0.417644,0.0019 -0.521592,0.250942 -0.521592,0.250942"
       id="path3339-74" />
    <path
       style="fill:none;stroke:#32cd32;stroke-width:0.0967046;stroke-linecap:round;stroke-dasharray:none;stroke-opacity:1"
       d="m 93.502888,93.542379 c 0,0 -0.12341,-0.247441 -0.525901,-0.24929 -0.417644,0.0019 -0.521592,0.250941 -0.521592,0.250941"
       id="path3339-0" />
  </g>
</svg>
