<?xml version="1.0" encoding="UTF-8" standalone="no"?>
<!-- Created with Inkscape (http://www.inkscape.org/) -->

<svg
   width="7.0680389mm"
   height="7.4152298mm"
   viewBox="0 0 7.0680389 7.4152298"
   version="1.1"
   id="svg1710"
   inkscape:export-filename="bitmap.svg"
   inkscape:export-xdpi="100.62201"
   inkscape:export-ydpi="100.62201"
   xmlns:inkscape="http://www.inkscape.org/namespaces/inkscape"
   xmlns:sodipodi="http://sodipodi.sourceforge.net/DTD/sodipodi-0.dtd"
   xmlns:xlink="http://www.w3.org/1999/xlink"
   xmlns="http://www.w3.org/2000/svg"
   xmlns:svg="http://www.w3.org/2000/svg">
  <sodipodi:namedview
     id="namedview1712"
     pagecolor="#ffffff"
     bordercolor="#000000"
     borderopacity="0.25"
     inkscape:showpageshadow="2"
     inkscape:pageopacity="0.0"
     inkscape:pagecheckerboard="0"
     inkscape:deskcolor="#d1d1d1"
     inkscape:document-units="mm"
     showgrid="false"
     inkscape:zoom="16.206792"
     inkscape:cx="345.19478"
     inkscape:cy="348.71182"
     inkscape:window-width="1920"
     inkscape:window-height="991"
     inkscape:window-x="-9"
     inkscape:window-y="-9"
     inkscape:window-maximized="1"
     inkscape:current-layer="layer1" />
  <defs
     id="defs1707">
    <linearGradient
       inkscape:collect="always"
       xlink:href="#linearGradient1668"
       id="linearGradient1670"
       x1="325.46216"
       y1="404.07864"
       x2="347.02609"
       y2="404.07864"
       gradientUnits="userSpaceOnUse" />
    <linearGradient
       inkscape:collect="always"
       id="linearGradient1668">
      <stop
         style="stop-color:#000000;stop-opacity:1;"
         offset="0"
         id="stop1664" />
      <stop
         style="stop-color:#000000;stop-opacity:0;"
         offset="1"
         id="stop1666" />
    </linearGradient>
    <linearGradient
       inkscape:collect="always"
       xlink:href="#linearGradient1668"
       id="linearGradient1901"
       gradientUnits="userSpaceOnUse"
       x1="325.46216"
       y1="404.07864"
       x2="347.02609"
       y2="404.07864" />
  </defs>
  <g
     inkscape:label="Layer 1"
     inkscape:groupmode="layer"
     id="layer1"
     transform="translate(-88.077929,-86.796117)">
    <g
       aria-label="A"
       transform="matrix(0.26458333,0,0,0.26458333,1.9660599,-16.559643)"
       id="text111"
       style="font-size:37.3333px;white-space:pre;shape-inside:url(#rect113);stroke:url(#linearGradient1670);stroke-opacity:1"
       inkscape:export-filename="text111.svg"
       inkscape:export-xdpi="96"
       inkscape:export-ydpi="96">
      <path
         d="m 326.12695,417.02134 7.47395,-25.88539 h 5.28646 l 7.47395,25.88539 h -3.82812 l -6.125,-22.74998 h -0.32812 l -6.125,22.74998 z m 3.46354,-6.30729 v -3.46353 h 13.12499 v 3.46353 z"
         style="font-family:'Cascadia Code';-inkscape-font-specification:'Cascadia Code';stroke:url(#linearGradient1901);stroke-opacity:1"
         id="path277" />
    </g>
    <g
       id="layer1-8"
       inkscape:label="Layer 1"
       transform="matrix(0.05027298,0,0,0.05027298,90.40849,89.064626)"
       style="stroke:#000000;stroke-opacity:1">
      <g
         id="g2387"
         style="fill:#ffd42a;stroke:#000000;stroke-opacity:1"
         inkscape:export-ydpi="90"
         inkscape:export-filename="/home/mgsmith/Desktop/warning.png"
         transform="matrix(0.45541,0,0,0.45541,26.271,23.868)"
         inkscape:export-xdpi="90">
        <path
           id="path2389"
           d="m 12.473,121.08 c -0.914,1.76 -1.991,3.41 -1.991,5.34 l 0.009,0.81 c 0,4.17 3.266,6.69 7.02,6.69 h 121.32 c 3.76,0 6.99,-3.12 6.99,-7.29 l -0.04,-0.81 c 0,-1.94 -0.95,-3.62 -1.99,-5.35 L 83.707,12.69 C 81.052,9.7442 76.748,9.7442 74.093,12.694 l -61.619,108.39 z"
           style="fill:#ffd42a;stroke:#000000;stroke-width:6.8314;stroke-opacity:1"
           sodipodi:nodetypes="ccccccccccc" />
      </g>
      <path
         id="path2393"
         transform="matrix(0.54212,0,0,0.54212,49.546,33.731)"
         d="m 31.962924,74.47538 a 8.0416269,8.0416269 0 0 1 -8.041627,8.041627 8.0416269,8.0416269 0 0 1 -8.041627,-8.041627 8.0416269,8.0416269 0 0 1 8.041627,-8.041627 8.0416269,8.0416269 0 0 1 8.041627,8.041627 z"
         style="stroke:#000000;stroke-opacity:1" />
      <path
         id="path2395"
         style="fill:#000000;stroke:#000000;stroke-opacity:1"
         d="m 62.486,43.817 c 1.713,0 4.371,1.365 4.371,3.06 l -1.279,17.615 c 0,1.695 -1.379,3.06 -3.092,3.06 -1.713,0 -3.091,-1.365 -3.091,-3.06 L 57.902,46.877 c 0,-1.695 2.871,-3.06 4.584,-3.06 z"
         inkscape:export-ydpi="90"
         sodipodi:nodetypes="cccsccc"
         inkscape:export-filename="/home/mgsmith/Desktop/warning.png"
         inkscape:export-xdpi="90" />
    </g>
    <path
       style="fill:#000000;stroke-width:0.264583"
       d="m 88.237951,93.950136 0.310184,0.26121"
       id="path365" />
    <path
       style="fill:none;stroke:#32cd32;stroke-width:0.1;stroke-linecap:round;stroke-dasharray:none;stroke-opacity:1"
       d="m 89.318321,93.944926 c 0,0 -0.124508,-0.26226 -0.530579,-0.26422 -0.421359,0.002 -0.526232,0.26597 -0.526232,0.26597"
       id="path3339"
       sodipodi:nodetypes="ccc" />
    <path
       style="fill:none;stroke:#32cd32;stroke-width:0.1;stroke-linecap:round;stroke-dasharray:none;stroke-opacity:1"
       d="m 90.376919,93.944136 c 0,0 -0.124508,-0.26226 -0.530579,-0.26422 -0.421359,0.002 -0.526232,0.26597 -0.526232,0.26597"
       id="path3339-2"
       sodipodi:nodetypes="ccc" />
    <path
       style="fill:none;stroke:#32cd32;stroke-width:0.1;stroke-linecap:round;stroke-dasharray:none;stroke-opacity:1"
       d="m 91.435253,93.944136 c 0,0 -0.124508,-0.26226 -0.530579,-0.26422 -0.421359,0.002 -0.526232,0.26597 -0.526232,0.26597"
       id="path3339-7"
       sodipodi:nodetypes="ccc" />
    <path
       style="fill:none;stroke:#32cd32;stroke-width:0.1;stroke-linecap:round;stroke-dasharray:none;stroke-opacity:1"
       d="m 92.494619,93.943096 c 0,0 -0.124508,-0.26226 -0.530579,-0.26422 -0.421359,0.002 -0.526232,0.26597 -0.526232,0.26597"
       id="path3339-74"
       sodipodi:nodetypes="ccc" />
    <path
       style="fill:none;stroke:#32cd32;stroke-width:0.1;stroke-linecap:round;stroke-dasharray:none;stroke-opacity:1"
       d="m 93.55502,93.943106 c 0,0 -0.124508,-0.26226 -0.530579,-0.26422 -0.421359,0.002 -0.526232,0.26597 -0.526232,0.26597"
       id="path3339-0"
       sodipodi:nodetypes="ccc" />
  </g>
</svg>
